<svg xmlns="http://www.w3.org/2000/svg" xmlns:xlink="http://www.w3.org/1999/xlink" width="1920" height="1920" viewBox="0 0 1920 1920">
  <defs>
    <clipPath id="clip-Web_1920_1">
      <rect width="1920" height="1920"/>
    </clipPath>
  </defs>
  <g id="Web_1920_1" data-name="Web 1920 – 1" clip-path="url(#clip-Web_1920_1)">
    <rect width="1920" height="1920" fill="#fff"/>
    <g id="Group_2" data-name="Group 2" transform="translate(-380.5 164.654)">
      <path id="Path_1" data-name="Path 1" d="M13.34,0,178.089-429.548H328.164L493.58,0H344.172l-33.35-85.376H195.431L162.748,0ZM212.773-185.426H293.48L252.793-289.478ZM731.7,6.67q-122.061,0-185.092-56.7T483.575-213.44q0-109.388,62.031-166.083t184.759-56.695q41.354,0,72.7,6a351.464,351.464,0,0,1,60.7,17.342v124.729a336.655,336.655,0,0,0-60.363-20.01,286.908,286.908,0,0,0-63.031-6.67q-54.027,0-82.375,23.012T629.648-213.44q0,54.027,29.682,76.371T741.7-114.724a302.845,302.845,0,0,0,62.7-6.336,315.943,315.943,0,0,0,60.7-19.676v125.4A367.815,367.815,0,0,1,804.068,1Q772.386,6.67,731.7,6.67Zm865.1,0a474.939,474.939,0,0,1-85.043-7.337Q1471.4-8,1443.388-21.344V-133.4a375.66,375.66,0,0,0,69.034,24.012q37.685,9.338,69.035,9.338,26.68,0,41.021-5.336t14.34-20.01q0-16.675-22.011-24.346t-63.365-21.678q-42.688-14.674-67.033-31.682t-35.018-41.354q-10.672-24.345-10.672-59.7,0-132.066,183.425-132.066a417.633,417.633,0,0,1,48.357,3q25.68,3,49.358,7.337a328.718,328.718,0,0,1,40.354,9.671v112.723q-34.017-13.34-62.365-19.009t-51.693-5.669A224.305,224.305,0,0,0,1603.8-324.5q-19.009,3.668-19.01,19.009,0,12.673,16.675,19.009t56.028,17.008q52.693,14.674,79.707,34.684t36.685,47.023q9.671,27.014,9.672,61.7,0,60.03-46.69,96.381T1596.8,6.67Z" transform="translate(442 1030.846)" fill="#645481"/>
      <g id="Group_1" data-name="Group 1" transform="translate(1248.875 459.47)">
        <path id="Subtraction_3" data-name="Subtraction 3" d="M178.391,249.132H0a250.9,250.9,0,0,1,5.062-50.208,247.738,247.738,0,0,1,37.486-89.083A249.857,249.857,0,0,1,152.159,19.579,247.856,247.856,0,0,1,198.923,5.062,250.98,250.98,0,0,1,249.132,0V178.391h-.014a70.683,70.683,0,0,0-70.727,70.738Z" transform="translate(601.457 103.194) rotate(90)" fill="#7cd9ea"/>
        <path id="Subtraction_6" data-name="Subtraction 6" d="M178.391,249.132H0a250.9,250.9,0,0,1,5.062-50.208,247.738,247.738,0,0,1,37.486-89.083A249.857,249.857,0,0,1,152.159,19.579,247.856,247.856,0,0,1,198.923,5.062,250.98,250.98,0,0,1,249.132,0V178.391h-.014a70.683,70.683,0,0,0-70.727,70.738Z" transform="translate(351.896 0) rotate(45)" fill="#64b956"/>
        <path id="Subtraction_9" data-name="Subtraction 9" d="M178.457,249.224H0A250.988,250.988,0,0,1,5.063,199a247.83,247.83,0,0,1,37.5-89.116,249.95,249.95,0,0,1,109.652-90.3A247.949,247.949,0,0,1,199,5.063,251.074,251.074,0,0,1,249.224,0V178.457h-.014a70.71,70.71,0,0,0-70.753,70.764Z" transform="translate(102.621 103.176)" fill="#f5cd2c"/>
        <path id="Subtraction_12" data-name="Subtraction 12" d="M178.391,249.132H0a250.9,250.9,0,0,1,5.062-50.208,247.738,247.738,0,0,1,37.486-89.083A249.857,249.857,0,0,1,152.159,19.579,247.856,247.856,0,0,1,198.923,5.062,250.98,250.98,0,0,1,249.132,0V178.391h-.014a70.683,70.683,0,0,0-70.727,70.738Z" transform="translate(0 352.325) rotate(-45)" fill="#e25743"/>
        <path id="Subtraction_15" data-name="Subtraction 15" d="M178.457,249.224H0A250.988,250.988,0,0,1,5.063,199a247.83,247.83,0,0,1,37.5-89.116,249.95,249.95,0,0,1,109.652-90.3A247.949,247.949,0,0,1,199,5.063,251.074,251.074,0,0,1,249.224,0V178.457h-.014a70.71,70.71,0,0,0-70.753,70.764Z" transform="translate(102.621 601.624) rotate(-90)" fill="#9a272e"/>
        <path id="Subtraction_18" data-name="Subtraction 18" d="M178.391,249.132H0a250.9,250.9,0,0,1,5.062-50.208,247.738,247.738,0,0,1,37.486-89.083A249.857,249.857,0,0,1,152.159,19.579,247.856,247.856,0,0,1,198.923,5.062,250.98,250.98,0,0,1,249.132,0V178.391h-.014a70.683,70.683,0,0,0-70.727,70.738Z" transform="translate(352.325 704.65) rotate(-135)" fill="#ea4871"/>
        <path id="Subtraction_21" data-name="Subtraction 21" d="M178.457,249.224H0A250.988,250.988,0,0,1,5.063,199a247.83,247.83,0,0,1,37.5-89.116,249.95,249.95,0,0,1,109.652-90.3A247.949,247.949,0,0,1,199,5.063,251.074,251.074,0,0,1,249.224,0V178.457h-.014a70.71,70.71,0,0,0-70.753,70.764Z" transform="translate(601.07 601.624) rotate(-180)" fill="#543189"/>
        <path id="Subtraction_25" data-name="Subtraction 25" d="M0,195.5V17.108H.015a70.242,70.242,0,0,0,27.521-5.558A70.452,70.452,0,0,0,46.135,0L172.374,126.239a251.012,251.012,0,0,1-33.081,26.712,249.062,249.062,0,0,1-42.319,22.97,247.8,247.8,0,0,1-46.765,14.517A251.035,251.035,0,0,1,0,195.5Z" transform="translate(351.895 405.957)" fill="#6a1de4"/>
      </g>
    </g>
  </g>
</svg>
